<svg xmlns="http://www.w3.org/2000/svg" width="1000" height="420">
<rect width="100%" height="100%" fill="white" />
<text x="50" y="30" font-size="20" font-family="Arial">CSV 평균기온 추이 (meantemp)</text>
<line x1="50" y1="370" x2="950" y2="370" stroke="black"/>
<line x1="50" y1="50" x2="50" y2="370" stroke="black"/>
<line x1="45" y1="370.00" x2="50" y2="370.00" stroke="black"/>
<text x="8" y="374.00" font-size="11" font-family="Arial">6.0</text>
<line x1="45" y1="306.00" x2="50" y2="306.00" stroke="black"/>
<text x="8" y="310.00" font-size="11" font-family="Arial">7.6</text>
<line x1="45" y1="242.00" x2="50" y2="242.00" stroke="black"/>
<text x="8" y="246.00" font-size="11" font-family="Arial">9.2</text>
<line x1="45" y1="178.00" x2="50" y2="178.00" stroke="black"/>
<text x="8" y="182.00" font-size="11" font-family="Arial">10.8</text>
<line x1="45" y1="114.00" x2="50" y2="114.00" stroke="black"/>
<text x="8" y="118.00" font-size="11" font-family="Arial">12.4</text>
<line x1="45" y1="50.00" x2="50" y2="50.00" stroke="black"/>
<text x="8" y="54.00" font-size="11" font-family="Arial">14.0</text>
<line x1="50.00" y1="370" x2="50.00" y2="375" stroke="black"/>
<text x="15.00" y="390" font-size="10" font-family="Arial">2013-01-01</text>
<line x1="250.00" y1="370" x2="250.00" y2="375" stroke="black"/>
<text x="215.00" y="390" font-size="10" font-family="Arial">2013-01-03</text>
<line x1="550.00" y1="370" x2="550.00" y2="375" stroke="black"/>
<text x="515.00" y="390" font-size="10" font-family="Arial">2013-01-06</text>
<line x1="750.00" y1="370" x2="750.00" y2="375" stroke="black"/>
<text x="715.00" y="390" font-size="10" font-family="Arial">2013-01-08</text>
<line x1="950.00" y1="370" x2="950.00" y2="375" stroke="black"/>
<text x="915.00" y="390" font-size="10" font-family="Arial">2013-01-10</text>
<polyline fill="none" stroke="#2563eb" stroke-width="2" points="50.00,210.00 150.00,314.00 250.00,323.20 350.00,263.20 450.00,370.00 550.00,330.00 650.00,330.00 750.00,255.60 850.00,50.00 950.00,170.00"/>
</svg>